<svg width="154" height="122" viewBox="0 0 154 122" fill="none" xmlns="http://www.w3.org/2000/svg">
<rect width="154" height="122" fill="white"/>
<path fill-rule="evenodd" clip-rule="evenodd" d="M127.512 39.65C129.893 39.65 131.824 41.5618 131.824 43.92C131.824 46.2783 129.893 48.19 127.512 48.19H102.872C105.253 48.19 107.184 50.1018 107.184 52.46C107.184 54.8183 105.253 56.73 102.872 56.73H116.424C118.805 56.73 120.736 58.6418 120.736 61C120.736 63.3583 118.805 65.27 116.424 65.27H110.157C107.154 65.27 104.72 67.1818 104.72 69.54C104.72 71.1122 105.952 72.5355 108.416 73.81C110.797 73.81 112.728 75.7218 112.728 78.08C112.728 80.4383 110.797 82.35 108.416 82.35H57.288C54.9065 82.35 52.976 80.4383 52.976 78.08C52.976 75.7218 54.9065 73.81 57.288 73.81H33.264C30.8825 73.81 28.952 71.8983 28.952 69.54C28.952 67.1818 30.8825 65.27 33.264 65.27H57.904C60.2854 65.27 62.216 63.3583 62.216 61C62.216 58.6418 60.2854 56.73 57.904 56.73H42.504C40.1225 56.73 38.192 54.8183 38.192 52.46C38.192 50.1018 40.1225 48.19 42.504 48.19H67.144C64.7625 48.19 62.832 46.2783 62.832 43.92C62.832 41.5618 64.7625 39.65 67.144 39.65H127.512ZM127.512 56.73C129.893 56.73 131.824 58.6418 131.824 61C131.824 63.3583 129.893 65.27 127.512 65.27C125.131 65.27 123.2 63.3583 123.2 61C123.2 58.6418 125.131 56.73 127.512 56.73Z" fill="#F3F7FF"/>
<path fill-rule="evenodd" clip-rule="evenodd" d="M94.6131 39.0397L100.385 80.461L100.904 84.6165C101.071 85.9552 100.113 87.1725 98.7643 87.3353L62.7351 91.6837C61.3861 91.8466 60.1569 90.8933 59.9897 89.5546L54.3898 44.7243C54.3062 44.0549 54.7852 43.4463 55.4597 43.3649C55.464 43.3644 55.4683 43.3639 55.4725 43.3634L58.4617 43.0341M60.8871 42.8025L63.7121 42.4908L60.8871 42.8025Z" fill="white"/>
<path d="M95.8515 38.8702C95.7562 38.1864 95.1245 37.708 94.4406 37.8017C93.7566 37.8953 93.2794 38.5256 93.3747 39.2093L95.8515 38.8702ZM100.385 80.461L101.626 80.309C101.625 80.3031 101.624 80.2973 101.623 80.2914L100.385 80.461ZM100.904 84.6165L102.145 84.4645L100.904 84.6165ZM98.7643 87.3353L98.917 88.5759L98.7643 87.3353ZM62.7351 91.6837L62.8878 92.9244L62.7351 91.6837ZM59.9897 89.5546L61.2304 89.4026L59.9897 89.5546ZM55.4725 43.3634L55.6123 44.6055L55.4725 43.3634ZM58.6015 44.2762C59.2877 44.2007 59.7814 43.5833 59.7042 42.8972C59.627 42.2112 59.0081 41.7164 58.3219 41.792L58.6015 44.2762ZM60.7471 41.5604C60.0609 41.6361 59.5673 42.2536 59.6446 42.9396C59.7219 43.6256 60.3409 44.1203 61.0271 44.0446L60.7471 41.5604ZM63.8521 43.7329C64.5383 43.6572 65.0319 43.0397 64.9545 42.3537C64.8772 41.6677 64.2582 41.173 63.572 41.2487L63.8521 43.7329ZM93.3747 39.2093L99.1467 80.6306L101.623 80.2914L95.8515 38.8702L93.3747 39.2093ZM99.1443 80.613L99.6634 84.7685L102.145 84.4645L101.626 80.309L99.1443 80.613ZM99.6634 84.7685C99.7439 85.4129 99.2828 86.0136 98.6115 86.0946L98.917 88.5759C100.944 88.3313 102.399 86.4975 102.145 84.4645L99.6634 84.7685ZM98.6115 86.0946L62.5824 90.4431L62.8878 92.9244L98.917 88.5759L98.6115 86.0946ZM62.5824 90.4431C61.9095 90.5243 61.3111 90.0488 61.2304 89.4026L58.749 89.7066C59.0027 91.7378 60.8627 93.1688 62.8878 92.9244L62.5824 90.4431ZM61.2304 89.4026L55.6305 44.5723L53.1491 44.8763L58.749 89.7066L61.2304 89.4026ZM55.6305 44.5723C55.6309 44.5752 55.6308 44.5812 55.6289 44.5876C55.6274 44.593 55.6253 44.5963 55.6239 44.5981C55.6225 44.5999 55.6206 44.6016 55.6178 44.6032C55.6143 44.6052 55.6116 44.6056 55.6125 44.6055L55.307 42.1243C53.9547 42.2875 52.9787 43.5126 53.1491 44.8763L55.6305 44.5723ZM55.6125 44.6055L55.6123 44.6055L55.3327 42.1213C55.3241 42.1222 55.3156 42.1232 55.307 42.1243L55.6125 44.6055ZM55.6123 44.6055L58.6015 44.2762L58.3219 41.792L55.3327 42.1213L55.6123 44.6055ZM61.0271 44.0446L63.8521 43.7329L63.572 41.2487L60.7471 41.5604L61.0271 44.0446Z" fill="#3BADFC"/>
<path fill-rule="evenodd" clip-rule="evenodd" d="M93.1022 41.6442L98.2887 79.1493L98.7552 82.9119C98.9055 84.1241 98.0468 85.2259 96.8372 85.373L64.533 89.3008C63.3234 89.4479 62.221 88.5845 62.0707 87.3723L57.1463 47.6566C57.0104 46.5604 57.7891 45.5637 58.8856 45.4304L62.1194 45.0372" fill="#E8F0FE"/>
<path d="M66.9599 34.5C66.9599 32.9812 68.1911 31.75 69.7099 31.75H95.6123C96.3367 31.75 97.0319 32.0358 97.5467 32.5454L104.916 39.8386C105.438 40.3551 105.732 41.0589 105.732 41.7932V77.74C105.732 79.2588 104.501 80.49 102.982 80.49H69.7099C68.1911 80.49 66.9599 79.2588 66.9599 77.74V34.5Z" fill="white" stroke="#3BADFC" stroke-width="2.5"/>
<path d="M96.5099 31.9657V39.04C96.5099 40.0507 97.3373 40.87 98.3579 40.87H103.245" stroke="#3BADFC" stroke-width="2.5" stroke-linecap="round" stroke-linejoin="round"/>
<path d="M72.688 71.98H88.704M72.688 40.87H88.704H72.688ZM72.688 48.19H99.176H72.688ZM72.688 56.12H99.176H72.688ZM72.688 64.05H99.176H72.688Z" stroke="#3BADFC" stroke-width="2.5" stroke-linecap="round" stroke-linejoin="round"/>
</svg>
