<svg width="18" height="12" viewBox="0 0 18 12" fill="none" xmlns="http://www.w3.org/2000/svg">
<path d="M2.95238 11.7143C2.4264 11.7143 2 11.2879 2 10.7619C2 10.2359 2.4264 9.80952 2.95238 9.80952H12.0476C12.5736 9.80952 13 10.2359 13 10.7619C13 11.2879 12.5736 11.7143 12.0476 11.7143H2.95238ZM0.952382 6.95238C0.426396 6.95238 0 6.52598 0 6C0 5.47401 0.426396 5.04762 0.952381 5.04762H17.0476C17.5736 5.04762 18 5.47401 18 6C18 6.52598 17.5736 6.95238 17.0476 6.95238H0.952382ZM5.95238 2.19048C5.4264 2.19048 5 1.76408 5 1.23809C5 0.712109 5.4264 0.285713 5.95238 0.285713H17.0476C17.5736 0.285713 18 0.712109 18 1.23809C18 1.76408 17.5736 2.19048 17.0476 2.19048H5.95238Z" fill="#636363"/>
</svg>
