<svg width="20" height="20" viewBox="0 0 20 20" fill="none" xmlns="http://www.w3.org/2000/svg">
<mask id="mask0_7492_93" style="mask-type:alpha" maskUnits="userSpaceOnUse" x="0" y="0" width="24" height="24">
<rect width="24" height="24" fill="#636363"/>
</mask>
<g mask="url(#mask0_7492_93)">
<path d="M2 9.09524C2 7.69841 2.29583 6.37698 2.8875 5.13095C3.47917 3.88492 4.325 2.80952 5.425 1.90476L6.85 3.23809C5.95 3.98413 5.25 4.86111 4.75 5.86905C4.25 6.87698 4 7.95238 4 9.09524H2ZM20 9.09524C20 7.95238 19.75 6.87698 19.25 5.86905C18.75 4.86111 18.05 3.98413 17.15 3.23809L18.575 1.90476C19.675 2.80952 20.5208 3.88492 21.1125 5.13095C21.7042 6.37698 22 7.69841 22 9.09524H20ZM4 17.6667V15.7619H6V9.09524C6 7.77778 6.41667 6.60714 7.25 5.58333C8.08333 4.55952 9.16667 3.88889 10.5 3.57143V2.90476C10.5 2.50793 10.6458 2.17063 10.9375 1.89286C11.2292 1.61508 11.5833 1.47619 12 1.47619C12.4167 1.47619 12.7708 1.61508 13.0625 1.89286C13.3542 2.17063 13.5 2.50793 13.5 2.90476V3.57143C14.8333 3.88889 15.9167 4.55952 16.75 5.58333C17.5833 6.60714 18 7.77778 18 9.09524V15.7619H20V17.6667H4ZM12 20.5238C11.45 20.5238 10.9792 20.3373 10.5875 19.9643C10.1958 19.5913 10 19.1429 10 18.619H14C14 19.1429 13.8042 19.5913 13.4125 19.9643C13.0208 20.3373 12.55 20.5238 12 20.5238ZM8 15.7619H16V9.09524C16 8.04762 15.6083 7.15079 14.825 6.40476C14.0417 5.65873 13.1 5.28571 12 5.28571C10.9 5.28571 9.95833 5.65873 9.175 6.40476C8.39167 7.15079 8 8.04762 8 9.09524V15.7619Z" fill="#636363"/>
</g>
</svg>
