<svg width="18" height="20" viewBox="0 0 18 20" fill="none" xmlns="http://www.w3.org/2000/svg">
<path d="M17 3C16.4 3 16 3.5 16 4.1V14C16 14.6 16.4 15 17 15.1C17.6 15.1 18 14.6 18 14V4.1C18 3.5 17.6 3 17 3ZM13.4 0H1.6C0.7 0 0 0.7 0 1.6V15.4C0 16.3 0.7 17 1.6 17H3V19C3 19.6 3.4 20 4 20H10C10.6 20 11 19.6 11 19V17H13.4C14.3 17 15 16.3 15 15.4V1.6C15 0.7 14.3 0 13.4 0ZM2 6H5V8H2V6ZM9 9V11H6V9H9ZM6 8V6H9V8H6ZM9 12V14H6V12H9ZM2 9H5V11H2V9ZM2 14V12H5V14H2ZM5 19H4V17H5V19ZM10 19H7V17H10V19ZM13 14H10V12H13V14ZM13 11H10V9H13V11ZM13 8H10V6H13V8ZM13 4H2V2H13V4Z" fill="#FBBC05"/>
</svg>
