<svg width="22" height="24" viewBox="0 0 22 24" fill="none" xmlns="http://www.w3.org/2000/svg">
<path d="M20.3333 3.83337C19.6333 3.83337 19.1667 4.41671 19.1667 5.11671V16.6667C19.1667 17.3667 19.6333 17.8334 20.3333 17.95C21.0333 17.95 21.5 17.3667 21.5 16.6667V5.11671C21.5 4.41671 21.0333 3.83337 20.3333 3.83337ZM16.1333 0.333374H2.36667C1.31667 0.333374 0.5 1.15004 0.5 2.20004V18.3C0.5 19.35 1.31667 20.1667 2.36667 20.1667H4V22.5C4 23.2 4.46667 23.6667 5.16667 23.6667H12.1667C12.8667 23.6667 13.3333 23.2 13.3333 22.5V20.1667H16.1333C17.1833 20.1667 18 19.35 18 18.3V2.20004C18 1.15004 17.1833 0.333374 16.1333 0.333374ZM2.83333 7.33337H6.33333V9.66671H2.83333V7.33337ZM11 10.8334V13.1667H7.5V10.8334H11ZM7.5 9.66671V7.33337H11V9.66671H7.5ZM11 14.3334V16.6667H7.5V14.3334H11ZM2.83333 10.8334H6.33333V13.1667H2.83333V10.8334ZM2.83333 16.6667V14.3334H6.33333V16.6667H2.83333ZM6.33333 22.5H5.16667V20.1667H6.33333V22.5ZM12.1667 22.5H8.66667V20.1667H12.1667V22.5ZM15.6667 16.6667H12.1667V14.3334H15.6667V16.6667ZM15.6667 13.1667H12.1667V10.8334H15.6667V13.1667ZM15.6667 9.66671H12.1667V7.33337H15.6667V9.66671ZM15.6667 5.00004H2.83333V2.66671H15.6667V5.00004Z" fill="#636363"/>
</svg>
