<svg width="22" height="22" viewBox="0 0 22 22" fill="none" xmlns="http://www.w3.org/2000/svg">
<path d="M20.3337 19.1666V9.24992C20.3337 9.0688 20.2915 8.89017 20.2105 8.72817C20.1295 8.56617 20.0119 8.42526 19.867 8.31658L11.7003 2.19159C11.4984 2.04013 11.2528 1.95825 11.0003 1.95825C10.7479 1.95825 10.5023 2.04013 10.3003 2.19159L2.13366 8.31658C1.98876 8.42526 1.87116 8.56617 1.79016 8.72817C1.70916 8.89017 1.66699 9.0688 1.66699 9.24992V19.1666C1.66699 19.476 1.78991 19.7728 2.0087 19.9915C2.22749 20.2103 2.52424 20.3333 2.83366 20.3333H7.50033C7.80974 20.3333 8.10649 20.2103 8.32528 19.9915C8.54408 19.7728 8.66699 19.476 8.66699 19.1666V15.6666C8.66699 15.3572 8.78991 15.0604 9.0087 14.8416C9.22749 14.6228 9.52424 14.4999 9.83366 14.4999H12.167C12.4764 14.4999 12.7732 14.6228 12.9919 14.8416C13.2107 15.0604 13.3337 15.3572 13.3337 15.6666V19.1666C13.3337 19.476 13.4566 19.7728 13.6754 19.9915C13.8942 20.2103 14.1909 20.3333 14.5003 20.3333H19.167C19.4764 20.3333 19.7732 20.2103 19.992 19.9915C20.2107 19.7728 20.3337 19.476 20.3337 19.1666Z" stroke="#3BADFC" stroke-width="2.5" stroke-linecap="round" stroke-linejoin="round"/>
</svg>
