<svg width="22" height="22" viewBox="0 0 22 22" fill="none" xmlns="http://www.w3.org/2000/svg">
<path d="M20.3333 11H1.66666M15.6667 1.66663H18C18.6188 1.66663 19.2123 1.91246 19.6499 2.35004C20.0875 2.78763 20.3333 3.38112 20.3333 3.99996V6.33329M6.33333 20.3333H4C3.38116 20.3333 2.78767 20.0875 2.35008 19.6499C1.9125 19.2123 1.66666 18.6188 1.66666 18V15.6666M20.3333 15.6666V18C20.3333 18.6188 20.0875 19.2123 19.6499 19.6499C19.2123 20.0875 18.6188 20.3333 18 20.3333H15.6667M1.66666 6.33329V3.99996C1.66666 3.38112 1.9125 2.78763 2.35008 2.35004C2.78767 1.91246 3.38116 1.66663 4 1.66663H6.33333" stroke="#636363" stroke-width="2.5" stroke-linecap="round" stroke-linejoin="round"/>
</svg>
